# xmcd
#
# Track frame offsets: 
#        150
#        20812
#        49171
#        63172
#        86930
#        112500
#
# Disc length: 1831 seconds
#
# Revision: 0
# Processed by: cddbd v1.5.2PL0 Copyright (c) Steve Scherf et al.
# Submitted via: ExactAudioCopy v0.95b3
#
DISCID=46072506
DTITLE=Clay Rose - Smoke and Steam
DYEAR=2005
DGENRE=Blues
TTITLE0=Smoke and Steam
TTITLE1=Winter Rose
TTITLE2=Milk and Honey
TTITLE3=Resurrection
TTITLE4=Santa Maria and the Sandman
TTITLE5=Hard  Days
EXTD=
EXTT0=
EXTT1=
EXTT2=
EXTT3=
EXTT4=
EXTT5=
PLAYORDER=
